<svg version="1" xmlns="http://www.w3.org/2000/svg" width="682.667" height="682.667" viewBox="0 0 512.000000 512.000000"><path d="M318.7 217.6c-.4.4-.7 17.8-.7 38.6V294h10v-39.2l3.4-3.4c3-3 4-3.4 8.4-3.4 3.4 0 5.7.6 7.3 1.9 2.4 1.9 2.4 2.3 2.9 22.8l.5 20.8 4.8.3 4.7.3v-21.3c0-20.2-.1-21.6-2.2-25.8-3.2-6.2-7.3-8.2-16-7.8-5 .3-7.5.9-9.7 2.6-1.7 1.2-3.2 2.2-3.5 2.2-.3 0-.7-6-.8-13.3l-.3-13.2-4-.3c-2.3-.2-4.4 0-4.8.4zM77.5 222.9c-15.6 7.1-16.7 25.4-1.9 33.8 2.1 1.3 7.5 3.5 11.9 4.9 16.2 5.4 20.3 10 16 18.3-1.9 3.7-6.7 5.6-14 5.5-9-.1-14.7-3.9-15.7-10.5-.3-2.1-.9-2.4-5.5-2.7-5.1-.3-5.3-.2-5.3 2.3 0 3.7 2.3 8.6 5.6 11.9 8.1 8.2 24.2 10.6 35.6 5.4 7.7-3.6 11.3-8.9 11.2-16.7-.2-11.7-6.2-17.2-25.1-23-9.3-2.8-14.3-6.9-14.3-11.8 0-7.2 4.3-10.3 14.4-10.3 5.9 0 6.9.3 10 3.1 2.2 1.9 3.8 4.3 4.2 6.5.6 3.3.7 3.4 5.5 3.4s4.9-.1 4.9-3c0-3.7-2.9-9.7-6.2-12.7-1.2-1.2-4.3-3.1-6.8-4.2-6-2.7-18.7-2.9-24.5-.2zM375 257.5V294h10v-73h-10v36.5zM394.7 221.7c-.4.3-.7 2.4-.7 4.5v3.8h23v64h10v-64h23v-9h-27.3c-15.1 0-27.7.3-28 .7zM138 240.5c-4.6 2.1-9.6 7-12.3 12-3 5.5-3.2 23.2-.3 28.5 4.7 8.9 11.8 13.3 21.6 13.4 3.6 0 8.1-.5 10.1-1.2 3.3-1.1 10.9-7.6 10.9-9.2 0-.3-1.4-1.6-3-2.9l-3.1-2.2-3.5 3c-9.3 8.2-22.2 3.7-24.9-8.7l-.7-3.2h36.5l-.7-7.2c-1.4-15.4-8-23-20.5-23.5-4.4-.2-7.8.2-10.1 1.2zm16.9 11c2 2.3 3.1 4.6 3.1 6.5v3h-12c-13.3 0-13.5-.2-10.4-6.2 2.6-5.1 5.3-6.7 11-6.8 4.7 0 5.5.3 8.3 3.5zM188.5 240.9c-5.4 2.4-10.5 8.3-10.5 12.1 0 2.9.2 3 4.5 3 4 0 4.6-.3 6-3.1 3.3-6.3 14.3-7.6 18.5-2.2 1.1 1.4 2 4.1 2 5.9 0 3.3-.1 3.4-4.3 3.4-11.1 0-21.3 3.5-25.2 8.8-2.6 3.6-3.3 12.8-1.1 17 4.3 8.4 17.4 11.3 26.8 6 4.7-2.6 4.7-2.6 5-.4.3 1.8 1.1 2.1 5.7 2.4l5.4.3-.8-3.3c-.4-1.8-1-11.9-1.4-22.5-.7-21.8-1.1-22.9-9.1-27.1-5.6-2.8-15.5-2.9-21.5-.3zm20.5 32.2c0 2.8-.5 5.9-1 7-2.7 5-14.4 6.7-18.7 2.7-4.6-4.3-2.1-11.9 4.4-13.4 1.6-.3 3.3-.7 3.8-.9.6-.2 3.4-.4 6.3-.4l5.2-.1v5.1zM246.8 241c-3.1 1.6-3.7 1.7-4.2.4-.4-1.1-1.8-1.4-5.3-1.2l-4.8.3v53h10l.3-19.7.2-19.7 3.1-2.5c2.4-2 4.1-2.6 8-2.6h4.9v-10h-4.3c-2.3 0-5.9.9-7.9 2zM276.6 241c-5.5 2.8-7.4 4.7-10.4 10.5-3.4 6.7-4.1 17.8-1.7 26.1 4.3 15 20.7 21.5 34.3 13.7 4.4-2.5 8.5-7.9 9.6-12.6.6-2.7.6-2.7-4.2-2.7-4.4 0-4.9.2-5.9 3-2.3 6.2-11.7 8.9-18 5-5-3-6.6-7.2-6.7-17 0-14.8 4.1-19.7 16.1-19.1 3.1.1 8 4.7 8.8 8.1.6 2.8.9 3 5.7 3h5l-.7-3.3c-1.6-7.1-6-12.6-12.4-15.3-4.9-2-14.8-1.7-19.5.6z"/></svg>